<?xml version="1.0" encoding="UTF-8" standalone="no"?>
<svg
   id="Layer_1"
   viewBox="0 0 1080 1080"
   version="1.1"
   sodipodi:docname="fichariumPy.svg"
   inkscape:version="1.4.3 (0d15f75042, 2025-12-25)"
   xml:space="preserve"
   xmlns:inkscape="http://www.inkscape.org/namespaces/inkscape"
   xmlns:sodipodi="http://sodipodi.sourceforge.net/DTD/sodipodi-0.dtd"
   xmlns="http://www.w3.org/2000/svg"
   xmlns:svg="http://www.w3.org/2000/svg"><sodipodi:namedview
     id="namedview3"
     pagecolor="#ffffff"
     bordercolor="#000000"
     borderopacity="0.25"
     inkscape:showpageshadow="2"
     inkscape:pageopacity="0.0"
     inkscape:pagecheckerboard="0"
     inkscape:deskcolor="#d1d1d1"
     inkscape:zoom="0.24519582"
     inkscape:cx="630.10861"
     inkscape:cy="236.54563"
     inkscape:window-width="1157"
     inkscape:window-height="988"
     inkscape:window-x="26"
     inkscape:window-y="23"
     inkscape:window-maximized="0"
     inkscape:current-layer="Layer_1" /><defs
     id="defs1"><style
       id="style1">.cls-1{stroke-width:0px;}</style></defs><path
     id="path16"
     style="fill:#102428;fill-opacity:1;stroke:#102428;stroke-width:50;stroke-linejoin:round;stroke-dasharray:none;stroke-opacity:1"
     class="cls-1"
     d="m 538.39258,67.292969 c -223.21217,0 -225.60938,86.642621 -225.60938,104.476561 v 108.24219 h 229.90625 v 27.39844 H 173.45312 c -58.62367,0 -106.152339,44.91182 -106.152339,100.30859 v 156.74023 l -0.0078,0.002 v 102.72265 c 0,55.39677 47.528701,100.3086 106.152341,100.3086 h 135.83985 v 114.0957 c -0.009,27.099 4.62445,125.96291 232.31445,125.96291 223.21217,0 225.60937,-86.64264 225.60937,-104.47658 V 794.83203 H 537.30273 v -27.33984 h 369.25196 c 58.62364,0 106.15231,-44.91183 106.15231,-100.3086 V 564.46094 h -0.01 V 407.71875 c 0,-55.39677 -47.52865,-100.30859 -106.15232,-100.30859 H 770.70703 v -114.1543 c 0.009,-27.099 -4.62445,-125.962891 -232.31445,-125.962891 z"
     sodipodi:nodetypes="sscccssccssccsscccssccssccs" /><path
     class="cls-1"
     d="m 1012.6983,407.71963 c 0,-55.39677 -47.52796,-100.30859 -106.15163,-100.30859 H 797.8401 v 102.72283 c 0,55.39677 47.52806,100.3086 106.1517,100.3086 h 108.7065 z"
     id="path3-0-6"
     style="stroke-width:0px;fill:#ffd43b;fill-opacity:1" /><path
     class="cls-1"
     d="m 797.8486,664.76948 c 0,-55.39677 47.528,-100.30859 106.15163,-100.30859 h 108.70657 v 102.72283 c 0,55.39677 -47.52806,100.3086 -106.1517,100.3086 H 797.8486 Z"
     id="path3-0-6-2"
     style="stroke-width:0px;fill:#ffd43b;fill-opacity:1" /><path
     class="cls-1"
     d="m 67.301659,407.71963 c 0,-55.39677 47.527961,-100.30859 106.151631,-100.30859 h 108.70657 v 102.72283 c 0,55.39677 -47.52806,100.3086 -106.1517,100.3086 H 67.301659 Z"
     id="path10"
     style="stroke-width:0px;fill:#306998;fill-opacity:1" /><path
     class="cls-1"
     d="m 282.15136,664.76948 c 0,-55.39677 -47.528,-100.30859 -106.15163,-100.30859 H 67.293159 v 102.72283 c 0,55.39677 47.528061,100.3086 106.151701,100.3086 h 108.7065 z"
     id="path11"
     style="stroke-width:0px;fill:#306998;fill-opacity:1" /><path
     id="path2-3"
     style="fill:#306998;fill-opacity:1;stroke-width:8.59467"
     d="m 538.39258,67.292969 c -223.21217,0 -225.60938,86.642621 -225.60938,104.476561 v 108.24219 h 229.90625 v 47.39844 l 228.01758,-20 v -114.1543 c 0.009,-27.099 -4.62445,-125.962891 -232.31445,-125.962891 z M 411.62109,140.08203 c 22.87901,0 41.36719,18.47764 41.36719,41.36524 0,22.87042 -18.48818,41.36718 -41.36719,41.36718 -22.87901,0 -41.36523,-18.48817 -41.36523,-41.36718 0,-22.8876 18.48622,-41.36524 41.36523,-41.36524 z"
     sodipodi:nodetypes="sscccccssssss" /><path
     id="path12"
     style="fill:#ffd43b;fill-opacity:1;stroke-width:8.59467"
     d="m 541.59913,1007.5516 c 223.21217,0 225.60938,-86.64266 225.60938,-104.4766 V 794.83281 H 537.30226 v -47.39844 l -228.01758,20 v 114.1543 c -0.009,27.099 4.62445,125.96293 232.31445,125.96293 z m 126.77149,-72.7891 c -22.87901,0 -41.36719,-18.47764 -41.36719,-41.36524 0,-22.87042 18.48818,-41.36718 41.36719,-41.36718 22.87901,0 41.36523,18.48817 41.36523,41.36718 0,22.8876 -18.48622,41.36524 -41.36523,41.36524 z"
     sodipodi:nodetypes="sscccccssssss" /><path
     class="cls-1"
     d="m 770.70673,552.01508 c 0,118.9682 -102.06947,215.41929 -227.96766,215.41929 H 309.28468 V 522.83034 c 0,-118.96819 102.06951,-215.4193 227.96766,-215.4193 h 233.45439 z"
     id="path3-6"
     style="stroke-width:0px;fill:#5dbac0;fill-opacity:1;opacity:1"
     sodipodi:nodetypes="sscsscs" /><path
     class="cls-1"
     d="m 770.70673,552.01508 c 0,118.9682 -102.06947,215.41929 -227.96766,215.41929 H 309.28468 V 522.83034 c 0,-118.96819 102.06951,-215.4193 227.96766,-215.4193 h 233.45439 z"
     id="path13"
     style="stroke-width:0px;fill:#5dbac0;fill-opacity:1;opacity:1"
     sodipodi:nodetypes="sscsscs" /></svg>
